<svg width="100" height="100" viewBox="0 0 100 100" fill="none" xmlns="http://www.w3.org/2000/svg">
<rect width="100" height="100" rx="20" fill="#F4FFFF"/>
<g clip-path="url(#clip0_1067:2)">
<g filter="url(#filter0_d_1067:2)">
<path d="M46.4026 69.8815C36.6959 72.6738 31.3656 58.9954 29.3306 54.116C25.2722 44.3688 14.6867 37.57 15.4672 30.3955C16.2476 23.221 25.064 23.9379 25.064 23.9379" stroke="#3A4256" stroke-width="3" stroke-miterlimit="10" stroke-linejoin="round" shape-rendering="crispEdges"/>
</g>
<g filter="url(#filter1_d_1067:2)">
<path d="M47.3985 69.8294C57.163 67.2394 53.9833 53.1158 53.2202 47.8838C51.6997 37.4313 57.2902 26.1636 52.9369 20.4113C48.5836 14.659 41.386 19.7985 41.386 19.7985" stroke="#3A4256" stroke-width="3" stroke-miterlimit="10" stroke-linejoin="round" shape-rendering="crispEdges"/>
</g>
<g filter="url(#filter2_d_1067:2)">
<path d="M71.8762 40.4492C76.7454 40.4492 80.6926 36.502 80.6926 31.6328C80.6926 26.7636 76.7454 22.8164 71.8762 22.8164C67.0071 22.8164 63.0598 26.7636 63.0598 31.6328C63.0598 36.502 67.0071 40.4492 71.8762 40.4492Z" fill="#878787"/>
</g>
<g filter="url(#filter3_d_1067:2)">
<path d="M72.1884 38.7514C76.4701 38.7514 79.9411 35.2804 79.9411 30.9987C79.9411 26.7171 76.4701 23.2461 72.1884 23.2461C67.9068 23.2461 64.4358 26.7171 64.4358 30.9987C64.4358 35.2804 67.9068 38.7514 72.1884 38.7514Z" fill="#3A4256"/>
</g>
<g filter="url(#filter4_d_1067:2)">
<path d="M52.5796 45.7539C52.0272 49.9062 58.8732 65.074 48.2535 69.2263C36.3614 73.8838 31.9235 56.566 28.7705 53.2084" stroke="#1CC7C1" stroke-width="4" stroke-miterlimit="10" shape-rendering="crispEdges"/>
</g>
<g filter="url(#filter5_d_1067:2)">
<path d="M28.7705 53.1886C28.7705 53.1886 35.4382 60.2859 43.2575 57.0309C50.6682 53.9446 51.8197 45.7539 51.8197 45.7539" stroke="#1CC7C1" stroke-width="4" stroke-miterlimit="10" shape-rendering="crispEdges"/>
</g>
<g opacity="0.22" filter="url(#filter6_d_1067:2)">
<path d="M71.3675 25.3901C68.3381 26.0954 66.4592 29.119 67.1588 32.1484C67.2628 32.5993 67.4247 33.0387 67.6386 33.455L68.0317 34.2296C66.9217 35.6807 66.0198 36.2357 65.7134 37.9181C66.4997 38.687 67.4189 39.2998 68.4248 39.7276C68.4248 39.7218 68.4306 39.7161 68.4306 39.7103C68.4306 39.7161 68.4364 39.7218 68.4364 39.7334C70.0956 40.4387 71.9861 40.6526 73.8823 40.2132C74.0963 40.1612 74.2986 40.0976 74.5009 40.034L74.3217 38.4153C74.3217 38.4153 74.553 36.3629 74.605 36.2531C74.738 35.9929 75.2756 35.8542 75.5531 35.6923C76.2238 35.2876 76.8077 34.7384 77.2586 34.0967C77.7082 33.4486 78.0176 32.7138 78.1669 31.9393C78.3162 31.1648 78.3022 30.3676 78.1258 29.5989C77.4205 26.5695 74.3911 24.6848 71.3675 25.3901Z" fill="#1CC7C1"/>
</g>
<g filter="url(#filter7_d_1067:2)">
<path d="M47.9303 68.5166C53.4745 81.2181 61.973 83.016 68.2514 81.9234C73.7667 80.9579 81.0684 76.0149 81.0511 67.054C81.028 56.2546 73.8245 56.9368 69.9222 50.0166C65.0601 41.391 71.6855 33.4707 71.6855 33.4707" stroke="#1CC7C1" stroke-width="4" stroke-miterlimit="10" shape-rendering="crispEdges"/>
</g>
<g opacity="0.22" filter="url(#filter8_d_1067:2)">
<path d="M67.7716 35.4153C67.7716 35.4153 68.87 34.8545 69.9222 35.4557C71.5872 36.4039 71.7491 37.7567 71.7491 37.7567C71.7491 37.7567 72.755 35.7564 73.2927 35.2129C73.8246 34.6637 70.0725 31.9407 69.2227 32.9871C68.3729 34.0336 67.7716 35.4153 67.7716 35.4153V35.4153Z" fill="#1CC7C1"/>
</g>
<g filter="url(#filter9_d_1067:2)">
<path d="M29.0893 21.1153C28.2221 21.1211 27.459 21.5373 26.956 22.1675L26.2391 21.6009C25.5858 21.0864 24.6261 21.5547 24.6319 22.3872L24.655 25.3877C24.6608 26.2202 25.6263 26.6769 26.268 26.1508L26.9675 25.5842C27.4763 26.2144 28.251 26.6248 29.124 26.6191C30.6444 26.6075 31.87 25.3645 31.8585 23.8441C31.8469 22.3236 30.6097 21.1038 29.0893 21.1153Z" fill="black"/>
</g>
<g filter="url(#filter10_d_1067:2)">
<path d="M43.7158 20.0648L42.1838 17.4863C41.756 16.7694 40.6922 16.8677 40.4032 17.6424L40.0852 18.498C39.3279 18.2148 38.4607 18.2552 37.7149 18.7004C37.4038 18.885 37.1321 19.1292 36.9154 19.4189C36.6987 19.7087 36.5413 20.0383 36.4522 20.389C36.3631 20.7396 36.3439 21.1044 36.3959 21.4624C36.4479 21.8205 36.57 22.1647 36.7552 22.4755C36.9398 22.7867 37.184 23.0584 37.4738 23.275C37.7635 23.4917 38.0931 23.6491 38.4438 23.7382C38.7944 23.8274 39.1592 23.8465 39.5172 23.7945C39.8753 23.7425 40.2196 23.6204 40.5304 23.4352C41.2819 22.9901 41.7329 22.2385 41.8427 21.4349L42.733 21.5563C43.554 21.6662 44.1437 20.7816 43.7158 20.0648V20.0648Z" fill="black"/>
</g>
<g filter="url(#filter11_d_1067:2)">
<path d="M73.2348 35.211C76.1468 35.211 78.5073 32.8504 78.5073 29.9385C78.5073 27.0266 76.1468 24.666 73.2348 24.666C70.3229 24.666 67.9623 27.0266 67.9623 29.9385C67.9623 32.8504 70.3229 35.211 73.2348 35.211Z" fill="#424242"/>
</g>
<g filter="url(#filter12_d_1067:2)">
<path d="M73.5008 33.6218C75.7613 33.6218 77.5939 31.7892 77.5939 29.5287C77.5939 27.2681 75.7613 25.4355 73.5008 25.4355C71.2402 25.4355 69.4077 27.2681 69.4077 29.5287C69.4077 31.7892 71.2402 33.6218 73.5008 33.6218Z" fill="#D1D1D1"/>
</g>
<g filter="url(#filter13_d_1067:2)">
<path d="M37.4952 21.735C37.0154 21.047 37.1079 19.7636 37.9346 19.1797C38.7613 18.5958 40.0101 18.8502 40.4899 19.6191C41.0276 20.4747 39.6227 19.7058 38.796 20.2897C37.9693 20.8736 38.0733 22.5675 37.4952 21.735Z" fill="#757575"/>
</g>
<g filter="url(#filter14_d_1067:2)">
<path d="M27.459 22.9717C27.6671 22.1566 28.6904 21.3877 29.6732 21.6305C30.656 21.8733 31.2804 22.9775 31.0144 23.8447C30.7196 24.8102 30.3785 23.2435 29.3957 23.0064C28.4187 22.7636 27.2104 23.9546 27.459 22.9717Z" fill="#757575"/>
</g>
</g>
<defs>
<filter id="filter0_d_1067:2" x="3.92609" y="17.418" width="52.8912" height="69.3398" filterUnits="userSpaceOnUse" color-interpolation-filters="sRGB">
<feFlood flood-opacity="0" result="BackgroundImageFix"/>
<feColorMatrix in="SourceAlpha" type="matrix" values="0 0 0 0 0 0 0 0 0 0 0 0 0 0 0 0 0 0 127 0" result="hardAlpha"/>
<feOffset dy="5"/>
<feGaussianBlur stdDeviation="5"/>
<feComposite in2="hardAlpha" operator="out"/>
<feColorMatrix type="matrix" values="0 0 0 0 0.227451 0 0 0 0 0.258824 0 0 0 0 0.337255 0 0 0 0.1 0"/>
<feBlend mode="normal" in2="BackgroundImageFix" result="effect1_dropShadow_1067:2"/>
<feBlend mode="normal" in="SourceGraphic" in2="effect1_dropShadow_1067:2" result="shape"/>
</filter>
<filter id="filter1_d_1067:2" x="30.5153" y="11.1855" width="35.616" height="75.0938" filterUnits="userSpaceOnUse" color-interpolation-filters="sRGB">
<feFlood flood-opacity="0" result="BackgroundImageFix"/>
<feColorMatrix in="SourceAlpha" type="matrix" values="0 0 0 0 0 0 0 0 0 0 0 0 0 0 0 0 0 0 127 0" result="hardAlpha"/>
<feOffset dy="5"/>
<feGaussianBlur stdDeviation="5"/>
<feComposite in2="hardAlpha" operator="out"/>
<feColorMatrix type="matrix" values="0 0 0 0 0.227451 0 0 0 0 0.258824 0 0 0 0 0.337255 0 0 0 0.1 0"/>
<feBlend mode="normal" in2="BackgroundImageFix" result="effect1_dropShadow_1067:2"/>
<feBlend mode="normal" in="SourceGraphic" in2="effect1_dropShadow_1067:2" result="shape"/>
</filter>
<filter id="filter2_d_1067:2" x="53.0598" y="17.8164" width="37.6328" height="37.6328" filterUnits="userSpaceOnUse" color-interpolation-filters="sRGB">
<feFlood flood-opacity="0" result="BackgroundImageFix"/>
<feColorMatrix in="SourceAlpha" type="matrix" values="0 0 0 0 0 0 0 0 0 0 0 0 0 0 0 0 0 0 127 0" result="hardAlpha"/>
<feOffset dy="5"/>
<feGaussianBlur stdDeviation="5"/>
<feComposite in2="hardAlpha" operator="out"/>
<feColorMatrix type="matrix" values="0 0 0 0 0.227451 0 0 0 0 0.258824 0 0 0 0 0.337255 0 0 0 0.1 0"/>
<feBlend mode="normal" in2="BackgroundImageFix" result="effect1_dropShadow_1067:2"/>
<feBlend mode="normal" in="SourceGraphic" in2="effect1_dropShadow_1067:2" result="shape"/>
</filter>
<filter id="filter3_d_1067:2" x="54.4358" y="18.2461" width="35.5053" height="35.5049" filterUnits="userSpaceOnUse" color-interpolation-filters="sRGB">
<feFlood flood-opacity="0" result="BackgroundImageFix"/>
<feColorMatrix in="SourceAlpha" type="matrix" values="0 0 0 0 0 0 0 0 0 0 0 0 0 0 0 0 0 0 127 0" result="hardAlpha"/>
<feOffset dy="5"/>
<feGaussianBlur stdDeviation="5"/>
<feComposite in2="hardAlpha" operator="out"/>
<feColorMatrix type="matrix" values="0 0 0 0 0.227451 0 0 0 0 0.258824 0 0 0 0 0.337255 0 0 0 0.1 0"/>
<feBlend mode="normal" in2="BackgroundImageFix" result="effect1_dropShadow_1067:2"/>
<feBlend mode="normal" in="SourceGraphic" in2="effect1_dropShadow_1067:2" result="shape"/>
</filter>
<filter id="filter4_d_1067:2" x="17.3126" y="40.4902" width="48.9334" height="46.5264" filterUnits="userSpaceOnUse" color-interpolation-filters="sRGB">
<feFlood flood-opacity="0" result="BackgroundImageFix"/>
<feColorMatrix in="SourceAlpha" type="matrix" values="0 0 0 0 0 0 0 0 0 0 0 0 0 0 0 0 0 0 127 0" result="hardAlpha"/>
<feOffset dy="5"/>
<feGaussianBlur stdDeviation="5"/>
<feComposite in2="hardAlpha" operator="out"/>
<feColorMatrix type="matrix" values="0 0 0 0 0.227451 0 0 0 0 0.258824 0 0 0 0 0.337255 0 0 0 0.1 0"/>
<feBlend mode="normal" in2="BackgroundImageFix" result="effect1_dropShadow_1067:2"/>
<feBlend mode="normal" in="SourceGraphic" in2="effect1_dropShadow_1067:2" result="shape"/>
</filter>
<filter id="filter5_d_1067:2" x="17.314" y="40.4678" width="46.486" height="34.418" filterUnits="userSpaceOnUse" color-interpolation-filters="sRGB">
<feFlood flood-opacity="0" result="BackgroundImageFix"/>
<feColorMatrix in="SourceAlpha" type="matrix" values="0 0 0 0 0 0 0 0 0 0 0 0 0 0 0 0 0 0 127 0" result="hardAlpha"/>
<feOffset dy="5"/>
<feGaussianBlur stdDeviation="5"/>
<feComposite in2="hardAlpha" operator="out"/>
<feColorMatrix type="matrix" values="0 0 0 0 0.227451 0 0 0 0 0.258824 0 0 0 0 0.337255 0 0 0 0.1 0"/>
<feBlend mode="normal" in2="BackgroundImageFix" result="effect1_dropShadow_1067:2"/>
<feBlend mode="normal" in="SourceGraphic" in2="effect1_dropShadow_1067:2" result="shape"/>
</filter>
<filter id="filter6_d_1067:2" x="55.7134" y="20.2422" width="32.556" height="35.1992" filterUnits="userSpaceOnUse" color-interpolation-filters="sRGB">
<feFlood flood-opacity="0" result="BackgroundImageFix"/>
<feColorMatrix in="SourceAlpha" type="matrix" values="0 0 0 0 0 0 0 0 0 0 0 0 0 0 0 0 0 0 127 0" result="hardAlpha"/>
<feOffset dy="5"/>
<feGaussianBlur stdDeviation="5"/>
<feComposite in2="hardAlpha" operator="out"/>
<feColorMatrix type="matrix" values="0 0 0 0 0.227451 0 0 0 0 0.258824 0 0 0 0 0.337255 0 0 0 0.1 0"/>
<feBlend mode="normal" in2="BackgroundImageFix" result="effect1_dropShadow_1067:2"/>
<feBlend mode="normal" in="SourceGraphic" in2="effect1_dropShadow_1067:2" result="shape"/>
</filter>
<filter id="filter7_d_1067:2" x="36.0973" y="27.1885" width="56.9538" height="72.0049" filterUnits="userSpaceOnUse" color-interpolation-filters="sRGB">
<feFlood flood-opacity="0" result="BackgroundImageFix"/>
<feColorMatrix in="SourceAlpha" type="matrix" values="0 0 0 0 0 0 0 0 0 0 0 0 0 0 0 0 0 0 127 0" result="hardAlpha"/>
<feOffset dy="5"/>
<feGaussianBlur stdDeviation="5"/>
<feComposite in2="hardAlpha" operator="out"/>
<feColorMatrix type="matrix" values="0 0 0 0 0.227451 0 0 0 0 0.258824 0 0 0 0 0.337255 0 0 0 0.1 0"/>
<feBlend mode="normal" in2="BackgroundImageFix" result="effect1_dropShadow_1067:2"/>
<feBlend mode="normal" in="SourceGraphic" in2="effect1_dropShadow_1067:2" result="shape"/>
</filter>
<filter id="filter8_d_1067:2" x="57.7716" y="27.75" width="25.5725" height="25.0068" filterUnits="userSpaceOnUse" color-interpolation-filters="sRGB">
<feFlood flood-opacity="0" result="BackgroundImageFix"/>
<feColorMatrix in="SourceAlpha" type="matrix" values="0 0 0 0 0 0 0 0 0 0 0 0 0 0 0 0 0 0 127 0" result="hardAlpha"/>
<feOffset dy="5"/>
<feGaussianBlur stdDeviation="5"/>
<feComposite in2="hardAlpha" operator="out"/>
<feColorMatrix type="matrix" values="0 0 0 0 0.227451 0 0 0 0 0.258824 0 0 0 0 0.337255 0 0 0 0.1 0"/>
<feBlend mode="normal" in2="BackgroundImageFix" result="effect1_dropShadow_1067:2"/>
<feBlend mode="normal" in="SourceGraphic" in2="effect1_dropShadow_1067:2" result="shape"/>
</filter>
<filter id="filter9_d_1067:2" x="14.6319" y="16.1152" width="27.2267" height="25.5039" filterUnits="userSpaceOnUse" color-interpolation-filters="sRGB">
<feFlood flood-opacity="0" result="BackgroundImageFix"/>
<feColorMatrix in="SourceAlpha" type="matrix" values="0 0 0 0 0 0 0 0 0 0 0 0 0 0 0 0 0 0 127 0" result="hardAlpha"/>
<feOffset dy="5"/>
<feGaussianBlur stdDeviation="5"/>
<feComposite in2="hardAlpha" operator="out"/>
<feColorMatrix type="matrix" values="0 0 0 0 0.227451 0 0 0 0 0.258824 0 0 0 0 0.337255 0 0 0 0.1 0"/>
<feBlend mode="normal" in2="BackgroundImageFix" result="effect1_dropShadow_1067:2"/>
<feBlend mode="normal" in="SourceGraphic" in2="effect1_dropShadow_1067:2" result="shape"/>
</filter>
<filter id="filter10_d_1067:2" x="26.3674" y="12.001" width="27.4918" height="26.8223" filterUnits="userSpaceOnUse" color-interpolation-filters="sRGB">
<feFlood flood-opacity="0" result="BackgroundImageFix"/>
<feColorMatrix in="SourceAlpha" type="matrix" values="0 0 0 0 0 0 0 0 0 0 0 0 0 0 0 0 0 0 127 0" result="hardAlpha"/>
<feOffset dy="5"/>
<feGaussianBlur stdDeviation="5"/>
<feComposite in2="hardAlpha" operator="out"/>
<feColorMatrix type="matrix" values="0 0 0 0 0.227451 0 0 0 0 0.258824 0 0 0 0 0.337255 0 0 0 0.1 0"/>
<feBlend mode="normal" in2="BackgroundImageFix" result="effect1_dropShadow_1067:2"/>
<feBlend mode="normal" in="SourceGraphic" in2="effect1_dropShadow_1067:2" result="shape"/>
</filter>
<filter id="filter11_d_1067:2" x="57.9623" y="19.666" width="30.545" height="30.5449" filterUnits="userSpaceOnUse" color-interpolation-filters="sRGB">
<feFlood flood-opacity="0" result="BackgroundImageFix"/>
<feColorMatrix in="SourceAlpha" type="matrix" values="0 0 0 0 0 0 0 0 0 0 0 0 0 0 0 0 0 0 127 0" result="hardAlpha"/>
<feOffset dy="5"/>
<feGaussianBlur stdDeviation="5"/>
<feComposite in2="hardAlpha" operator="out"/>
<feColorMatrix type="matrix" values="0 0 0 0 0.227451 0 0 0 0 0.258824 0 0 0 0 0.337255 0 0 0 0.1 0"/>
<feBlend mode="normal" in2="BackgroundImageFix" result="effect1_dropShadow_1067:2"/>
<feBlend mode="normal" in="SourceGraphic" in2="effect1_dropShadow_1067:2" result="shape"/>
</filter>
<filter id="filter12_d_1067:2" x="59.4077" y="20.4355" width="28.1862" height="28.1865" filterUnits="userSpaceOnUse" color-interpolation-filters="sRGB">
<feFlood flood-opacity="0" result="BackgroundImageFix"/>
<feColorMatrix in="SourceAlpha" type="matrix" values="0 0 0 0 0 0 0 0 0 0 0 0 0 0 0 0 0 0 127 0" result="hardAlpha"/>
<feOffset dy="5"/>
<feGaussianBlur stdDeviation="5"/>
<feComposite in2="hardAlpha" operator="out"/>
<feColorMatrix type="matrix" values="0 0 0 0 0.227451 0 0 0 0 0.258824 0 0 0 0 0.337255 0 0 0 0.1 0"/>
<feBlend mode="normal" in2="BackgroundImageFix" result="effect1_dropShadow_1067:2"/>
<feBlend mode="normal" in="SourceGraphic" in2="effect1_dropShadow_1067:2" result="shape"/>
</filter>
<filter id="filter13_d_1067:2" x="27.2045" y="13.8594" width="23.4048" height="23.1016" filterUnits="userSpaceOnUse" color-interpolation-filters="sRGB">
<feFlood flood-opacity="0" result="BackgroundImageFix"/>
<feColorMatrix in="SourceAlpha" type="matrix" values="0 0 0 0 0 0 0 0 0 0 0 0 0 0 0 0 0 0 127 0" result="hardAlpha"/>
<feOffset dy="5"/>
<feGaussianBlur stdDeviation="5"/>
<feComposite in2="hardAlpha" operator="out"/>
<feColorMatrix type="matrix" values="0 0 0 0 0.227451 0 0 0 0 0.258824 0 0 0 0 0.337255 0 0 0 0.1 0"/>
<feBlend mode="normal" in2="BackgroundImageFix" result="effect1_dropShadow_1067:2"/>
<feBlend mode="normal" in="SourceGraphic" in2="effect1_dropShadow_1067:2" result="shape"/>
</filter>
<filter id="filter14_d_1067:2" x="17.426" y="16.585" width="23.6499" height="22.5713" filterUnits="userSpaceOnUse" color-interpolation-filters="sRGB">
<feFlood flood-opacity="0" result="BackgroundImageFix"/>
<feColorMatrix in="SourceAlpha" type="matrix" values="0 0 0 0 0 0 0 0 0 0 0 0 0 0 0 0 0 0 127 0" result="hardAlpha"/>
<feOffset dy="5"/>
<feGaussianBlur stdDeviation="5"/>
<feComposite in2="hardAlpha" operator="out"/>
<feColorMatrix type="matrix" values="0 0 0 0 0.227451 0 0 0 0 0.258824 0 0 0 0 0.337255 0 0 0 0.1 0"/>
<feBlend mode="normal" in2="BackgroundImageFix" result="effect1_dropShadow_1067:2"/>
<feBlend mode="normal" in="SourceGraphic" in2="effect1_dropShadow_1067:2" result="shape"/>
</filter>
<clipPath id="clip0_1067:2">
<rect width="74" height="74" fill="white" transform="translate(13 13)"/>
</clipPath>
</defs>
</svg>
